<svg xmlns="http://www.w3.org/2000/svg" width="106" height="29" stroke="none" stroke-linecap="round" stroke-linejoin="round" fill="#fff" fill-rule="nonzero"><path d="M11.9182 18.9239v3.6952H.5v-18.28h4.0046v14.5848zm1.7686-8.7021h3.8489v12.3964h-3.8489zm1.9249-6.1578c1.2326.0002 2.2319.9991 2.2326 2.2318s-1.0002 2.2309-2.2331 2.2309-2.2313-.9977-2.2313-2.2309.9992-2.2309 2.2313-2.2318m26.2192 6.1566h4.7123l-5.0519 5.7312 4.9466 6.6664h-4.832l-4.084-6.1239h-.0497v6.1239h-3.8475V4.3378h3.8475v10.9254zm-22.1657.0072h3.6943v1.6981h.0509c.5129-.9751 1.7703-2.0008 3.6425-2.0008 3.9006 0 4.6189 2.5655 4.6189 5.9002v6.7925H27.823v-6.0267c0-1.4375-.0264-3.2837-2.0022-3.2837-2.0008 0-2.3077 1.5652-2.3077 3.181v6.126h-3.8488V10.2278zM54.6492 14.98c.0255-1.2829-.9756-2.3604-2.3621-2.3604-1.6926 0-2.6169 1.1547-2.7183 2.3604zm3.2578 5.4892c-1.2311 1.5653-3.2574 2.464-5.2642 2.464-3.8479 0-6.9271-2.5671-6.9271-6.5437s3.0792-6.5378 6.9271-6.5378c3.595 0 5.8501 2.5654 5.8501 6.5378v1.2056h-8.9288c.3057 1.4626 1.4108 2.4114 2.8996 2.4114 1.2575 0 2.1036-.6368 2.7454-1.5143zm8.6053-7.2476c-1.9231 0-3.077 1.2838-3.077 3.1551s1.1548 3.156 3.077 3.156 3.0809-1.2812 3.0809-3.156-1.1548-3.1551-3.0809-3.1551m6.6227 9.3907h-3.5414v-1.643h-.0501c-.5922.8979-2.0789 1.9503-3.8242 1.9503-3.696 0-6.1328-2.6673-6.1328-6.4401 0-3.4642 2.1549-6.6457 5.6956-6.6457 1.5919 0 3.0799.436 3.9481 1.6417h.0501V4.3378h3.8505z"/><path d="M101.021.5H78.8998c-1.0613 0-1.9159.838-1.9159 1.8705V24.585c0 1.0338.8588 1.8722 1.9159 1.8722h22.1212c1.0587 0 1.9214-.8389 1.9214-1.8722V2.3705C102.9428 1.338 102.0802.5 101.021.5z" fill="#0177b5"/><path d="M80.8327 10.2315h3.8505v12.3879h-3.8505zm1.9262-6.1578c1.2319.0012 2.2302.9998 2.2309 2.2318s-.9987 2.2314-2.2309 2.2326-2.2329-.9995-2.2331-2.2326 1.0003-2.2318 2.2331-2.2318m4.3387 6.1578h3.6926v1.6884h.0509c.5095-.9739 1.7703-2.0008 3.6425-2.0008 3.8989 0 4.6189 2.5659 4.6189 5.901v6.7946h-3.8467v-6.0283c0-1.4366-.0263-3.2846-2.0008-3.2846-2.0038 0-2.3107 1.5648-2.3107 3.1806v6.1281H87.098V10.2226z"/></svg>